<?xml version="1.0" encoding="UTF-8"?>
<svg xmlns="http://www.w3.org/2000/svg" viewBox="0 0 64 64">
  <g fill="none" stroke="#111111" stroke-linecap="round" stroke-linejoin="round">
  <path d="M16 16 A14 14 0 0 0 16 48 L16 16 Z" fill="#FFC44D" stroke-width="3"/>
  <path d="M16 16 A14 14 0 0 0 16 48" stroke-width="5"/>
  <path d="M32 16 A14 14 0 0 0 32 48 L32 16 Z" fill="#FFC44D" stroke-width="3"/>
  <path d="M32 16 A14 14 0 0 0 32 48" stroke-width="5"/>
  <path d="M50 14 C48 16,48 20,50 22 C52 24,56 24,58 22 C60 20,60 16,58 14 C56 12,52 12,50 14 Z" stroke-width="2" fill="none"/>
</g>
</svg>
